<svg id="Layer_1" data-name="Layer 1" xmlns="http://www.w3.org/2000/svg" viewBox="0 0 50 50"><title>apps-icon</title><path d="M47,2.3H3a3,3,0,0,0-3,3V44.7a3,3,0,0,0,3,3H47a3,3,0,0,0,3-3V5.3a3,3,0,0,0-3-3ZM35.5,9.9a1.11,1.11,0,0,1,1.1-1.1h1.1a1.11,1.11,0,0,1,1.1,1.1v1.3a1.11,1.11,0,0,1-1.1,1.1H36.6a1.11,1.11,0,0,1-1.1-1.1Zm-5.1,0a1.11,1.11,0,0,1,1.1-1.1h1.1a1.11,1.11,0,0,1,1.1,1.1v1.3a1.11,1.11,0,0,1-1.1,1.1H31.5a1.11,1.11,0,0,1-1.1-1.1ZM47.6,45.2H2.4V5.1H47.6V45.2ZM44,11.1a1.11,1.11,0,0,1-1.1,1.1H41.8a1.11,1.11,0,0,1-1.1-1.1V9.9a1.11,1.11,0,0,1,1.1-1.1h1.1A1.11,1.11,0,0,1,44,9.9Z" fill="#2596cd"/><path d="M10.7,26.9l8,3.7a1.48,1.48,0,0,0,.7.1,1.88,1.88,0,0,0,.8-.2,1.46,1.46,0,0,0,.7-1.3h0a1.57,1.57,0,0,0-.9-1.4l-5-2.3,5-2.3a1.69,1.69,0,0,0,.9-1.4h0a1.71,1.71,0,0,0-.7-1.3.82.82,0,0,0-.8-.5c-.2,0-.5.1-.7.1l-8,3.7a1.69,1.69,0,0,0-.9,1.4v.1a1.77,1.77,0,0,0,.9,1.6Z" fill="#2596cd"/><path d="M21.1,34.5a1.61,1.61,0,0,0,1.3.6h0A1.5,1.5,0,0,0,23.9,34l5.3-16.4a1.4,1.4,0,0,0-.2-1.4,1.61,1.61,0,0,0-1.3-.6h0a1.5,1.5,0,0,0-1.5,1.1L20.9,33.1a1.4,1.4,0,0,0,.2,1.4Z" fill="#2596cd"/><path d="M29,21.6a1.57,1.57,0,0,0,.9,1.4l5,2.3-5,2.3a2,2,0,0,0-.9,1.6h0a1.71,1.71,0,0,0,.7,1.3,1.2,1.2,0,0,0,.8.2,1.7,1.7,0,0,0,.7-.1l8-3.7a1.69,1.69,0,0,0,.9-1.4v-.1a1.57,1.57,0,0,0-.9-1.4l-8-3.7a.86.86,0,0,0-.6-.3A1.57,1.57,0,0,0,29,21.6Z" fill="#2596cd"/></svg>