<?xml version="1.0" encoding="UTF-8" standalone="no"?>
<svg width="17px" height="17px" viewBox="0 0 17 17" version="1.1" xmlns="http://www.w3.org/2000/svg" xmlns:xlink="http://www.w3.org/1999/xlink">
    <!-- Generator: Sketch 39.1 (31720) - http://www.bohemiancoding.com/sketch -->
    <title>cross</title>
    <desc>Created with Sketch.</desc>
    <defs></defs>
    <g id="Page-1" stroke="none" stroke-width="1" fill="none" fill-rule="evenodd">
        <path d="M16.5691133,14.4885648 C17.1435199,15.0629715 17.1435199,15.9947067 16.5691133,16.5691133 C16.2817465,16.8564801 15.9054563,17 15.5288391,17 C15.1522219,17 14.7759316,16.8564801 14.4885648,16.5691133 L8.49995913,10.5805076 L2.51135342,16.5691133 C2.22398665,16.8564801 1.84769638,17 1.47107919,17 C1.09446199,17 0.718171722,16.8564801 0.430804956,16.5691133 C-0.143601652,15.9947067 -0.143601652,15.0629715 0.430804956,14.4885648 L6.41941067,8.49995913 L0.430804956,2.51135342 C-0.143601652,1.93694681 -0.143601652,1.00521156 0.430804956,0.430804956 C1.00553849,-0.143601652 1.93661989,-0.143601652 2.51135342,0.430804956 L8.49995913,6.41941067 L14.4885648,0.430804956 C15.0632984,-0.143601652 15.9943798,-0.143601652 16.5691133,0.430804956 C17.1435199,1.00521156 17.1435199,1.93694681 16.5691133,2.51135342 L10.5805076,8.49995913 L16.5691133,14.4885648 Z" id="cross" fill="#FFFFFF"></path>
    </g>
</svg>