<svg id="Layer_1" data-name="Layer 1" xmlns="http://www.w3.org/2000/svg" viewBox="0 0 75 75"><title>help-icon</title><path d="M28.3,22.2a3.19,3.19,0,0,0-.6.7,6,6,0,0,1,.6-.7Z" fill="#2596cd"/><path d="M41.3,24.6a6.28,6.28,0,0,1,1.4,4.2,6.11,6.11,0,0,1-1,3.4A11,11,0,0,1,40.3,34l-2,2a15.39,15.39,0,0,0-3.7,5,15.9,15.9,0,0,0-.8,5.8h4.4a14.33,14.33,0,0,1,.7-4.8A13.33,13.33,0,0,1,42,38.1a31.62,31.62,0,0,0,4.4-4.8A7.82,7.82,0,0,0,47.5,29a9.51,9.51,0,0,0-3-7.2A10.91,10.91,0,0,0,36.6,19a11.07,11.07,0,0,0-8.4,3.3,12.43,12.43,0,0,0-3,8.7h4.4a12.55,12.55,0,0,1,1-5c1.1-2.1,3-3.1,5.8-3.1,2.3-.1,3.9.5,4.9,1.7Z" fill="#2596cd"/><path d="M75,37.5A37.5,37.5,0,1,0,37.5,75,37.51,37.51,0,0,0,75,37.5Zm-71.6,0A34.1,34.1,0,1,1,37.5,71.6,34.14,34.14,0,0,1,3.4,37.5Z" fill="#2596cd"/><rect x="33.6" y="50.9" width="5" height="5.2" fill="#2596cd"/></svg>