<svg id="Layer_1" data-name="Layer 1" xmlns="http://www.w3.org/2000/svg" viewBox="0 0 200 59"><title>metasploit-r7-logo</title><path d="M0,28.6H3.9V32H4c.4-1.3,3.1-4,7.1-4A7.14,7.14,0,0,1,18,32.1,8.07,8.07,0,0,1,25,28c6.8,0,8.4,4.8,8.4,9.8V50.6H29.2V38.4c0-3.3-.7-6.4-4.7-6.4s-5.6,2.7-5.6,6.6V50.7H14.7V39.1c0-4.2-.6-7.2-4.6-7.2-3,0-5.7,2.3-5.7,7.2V50.6H0Z" fill="#fff"/><path d="M40.5,41.2c0,3.9,3.6,6.4,7.4,6.4,2.6,0,4.4-1.3,6.1-3.3l3.1,2.4c-2.3,3-5.5,4.5-9.8,4.5-7,0-11.3-5.1-11.3-11.6A11.28,11.28,0,0,1,47.5,28c7.8,0,10.7,5.9,10.7,11.6v1.5Zm13.2-3.4c-.1-3.7-2.1-6.4-6.4-6.4a6.8,6.8,0,0,0-6.8,6.4Z" fill="#fff"/><path d="M72.7,32.2h-6v10c0,2.5,0,5.1,3.1,5.1a5.52,5.52,0,0,0,3-.7v3.8a10,10,0,0,1-3.8.8c-6.5,0-6.6-4-6.6-7.5V32.2H57.6V28.6h4.8V22.4h4.2v6.2h6v3.6Z" fill="#fff"/><path d="M75.8,31.3A13.26,13.26,0,0,1,84.5,28c6.5,0,9.2,3.6,9.2,7.4V46.7c0,1.4.1,2.7.2,4H90.2c-.1-1.1-.1-2.3-.1-3.3H90c-1.8,2.9-4.4,3.9-7.7,3.9-4.1,0-7.7-2.3-7.7-6.6,0-5.7,5.5-7.7,12.2-7.7H90V36c0-2.3-1.6-4.6-5.3-4.6-3.2,0-4.7,1.4-6.3,2.5Zm11.9,8.8c-4,0-8.8.7-8.8,4.2,0,2.5,1.8,3.6,4.7,3.6,4.6,0,6.3-3.4,6.3-6.4V40.1Z" fill="#fff"/><path d="M110,34.1a5.64,5.64,0,0,0-4.5-2.2c-2,0-3.7.9-3.7,2.5,0,2.7,3.8,3,5.6,3.4,3.6.9,6.4,2.3,6.4,6.4,0,5-4.6,7-8.9,7-3.6,0-6.4-1-8.5-3.9l3.1-2.6c1.4,1.4,2.9,2.6,5.3,2.6,2.1,0,4.4-.9,4.4-2.8,0-2.5-3.5-3-5.3-3.4-3.6-.9-6.8-2-6.8-6.3,0-4.6,4.2-6.8,8.4-6.8,2.9,0,5.9,1,7.5,3.6Z" fill="#fff"/><path d="M116.5,28.6h4.2v3.1h.1a9.58,9.58,0,0,1,7.7-3.7c6.8,0,11.2,5.1,11.2,11.6s-4.4,11.6-11.2,11.6a9.12,9.12,0,0,1-7.7-3.8h-.1V59h-4.2Zm4.3,11c0,4.4,2.8,7.7,7.2,7.7s7.2-3.1,7.2-7.7-2.8-7.7-7.3-7.7-7.1,3.3-7.1,7.7Z" fill="#fff"/><path d="M143,15.5h4.2V50.7H143Z" fill="#fff"/><path d="M160.9,28.1a11.65,11.65,0,1,1-.1,0Zm0,19.2c4.4,0,7.2-3.2,7.2-7.7s-2.8-7.7-7.2-7.7-7.2,3.2-7.2,7.7,2.7,7.7,7.2,7.7Z" fill="#fff"/><path d="M176.7,17.6a3.1,3.1,0,1,1-3.1,3.1A3.18,3.18,0,0,1,176.7,17.6Zm-2.1,11h4.2V50.7h-4.2Z" fill="#fff"/><path d="M195.4,32.2h-6v10c0,2.5,0,5.1,3.1,5.1a5.52,5.52,0,0,0,3-.7v3.8a10,10,0,0,1-3.8.8c-6.5,0-6.6-4-6.6-7.5V32.2h-4.8V28.6h4.8V22.4h4.2v6.2h6v3.6Z" fill="#fff"/><path d="M196.7,15.8a3.3,3.3,0,1,1-3.3,3.3h0A3.33,3.33,0,0,1,196.7,15.8Zm0,6a2.8,2.8,0,1,0-2.8-2.8h0a2.86,2.86,0,0,0,2.8,2.8Zm-.7-.9h-.5V17.1h1.4c.8,0,1.2.3,1.2,1a1.16,1.16,0,0,1-1,1.1l1.2,1.6h-.5l-1.1-1.6H196Zm0-2.1h.6c.5,0,1.1,0,1.1-.7,0-.5-.4-.6-.8-.6H196Z" fill="#fff"/><g id="Symbols"><g id="Rapid7-logo"><g id="Group"><path id="Shape" d="M9.8,7.1H5.9l.8-3.8h3.6c1.2,0,1.9.6,1.9,1.6A2.21,2.21,0,0,1,9.8,7.1m6.4-2.6c0-2.6-2-4.5-5.5-4.5H3.5L0,15.9H4l1.2-5.5H7.5l2.3,5.5h4l-2.5-5.7a5.7,5.7,0,0,0,4.9-5.7" fill="#fff"/><path id="Shape-2" data-name="Shape" d="M23,10l3.4-5.9L27.7,10ZM24.8,0,15.6,15.9h4l1.5-2.6h7.4l.6,2.6h4L29.5,0Z" fill="#fff"/><path id="Shape-3" data-name="Shape" d="M44.4,7.1H40.9l.8-3.8h3.1c1.2,0,2,.6,2,1.6a2.33,2.33,0,0,1-2.4,2.2M45.2,0H38.5L35,15.9h4l1.2-5.5h4.4a5.89,5.89,0,0,0,6.1-5.9c0-2.6-2.1-4.5-5.5-4.5" fill="#fff"/><polygon id="Shape-4" data-name="Shape" points="58.3 0 54.4 0 50.9 15.9 54.8 15.9 58.3 0" fill="#fff"/><path id="Shape-5" data-name="Shape" d="M86.8,0H74.3l.6.6A9.5,9.5,0,0,1,77,6.8a12.08,12.08,0,0,1-4,9.1h7.7l3.6-9.1H79.7l.8-3.5h9.1L84.8,15.9h1.9c4.4,0,7.3-3.6,7.3-8S91.2,0,86.8,0" fill="#e95f26"/><path id="Shape-6" data-name="Shape" d="M64.7,12.6H62.5l2-9.3h2.1a3.52,3.52,0,0,1,3.6,3.8,5.36,5.36,0,0,1-5.5,5.5m8-10A8,8,0,0,0,66.4,0H61.3L57.8,15.9h6.4a12.22,12.22,0,0,0,5.9-1.4,8.71,8.71,0,0,0,4-7.7,6.44,6.44,0,0,0-1.4-4.2" fill="#fff"/></g></g></g></svg>