<svg id="Layer_2" data-name="Layer 2" xmlns="http://www.w3.org/2000/svg" viewBox="0 0 292.8 63.7"><title>metasploit-logo</title><path d="M0,19.2H5.7v5h.1c.6-1.9,4.6-5.8,10.4-5.8,4.8,0,8,2,10.1,6a11.77,11.77,0,0,1,10.2-6c9.9,0,12.3,7.1,12.3,14.3V51.5H42.7v-18c0-4.9-1-9.4-6.9-9.4s-8.2,4-8.2,9.7V51.5H21.5V34.6c0-6.1-.9-10.5-6.8-10.5-4.4,0-8.4,3.3-8.4,10.6V51.5H0Z" fill="#fff"/><path d="M59.3,37.6c0,5.7,5.2,9.4,10.9,9.4,3.8,0,6.5-1.9,8.9-4.8l4.6,3.5c-3.4,4.4-8.1,6.6-14.3,6.6-10.2,0-16.6-7.4-16.6-17s7-17,16.7-17c11.4,0,15.7,8.7,15.7,17v2.2Zm19.3-4.9c-.1-5.4-3.1-9.4-9.3-9.4a10,10,0,0,0-10,9.4Z" fill="#fff"/><path d="M106.4,24.5H97.6V39.1c0,3.6,0,7.4,4.6,7.4a8.61,8.61,0,0,0,4.4-1v5.6a14.59,14.59,0,0,1-5.5,1.1c-9.5,0-9.6-5.8-9.6-11V24.5H84.4V19.2h7.1V10.1h6.1v9.1h8.8Z" fill="#fff"/><path d="M111,23.2a19.36,19.36,0,0,1,12.8-4.8c9.5,0,13.5,5.2,13.5,10.8V45.7a58.28,58.28,0,0,0,.3,5.9h-5.4c-.1-1.6-.2-3.3-.2-4.9h-.1c-2.7,4.2-6.4,5.7-11.3,5.7-6,0-11.2-3.4-11.2-9.7,0-8.3,8-11.2,17.8-11.2h4.5V30.1c0-3.3-2.4-6.8-7.7-6.8-4.7,0-6.9,2-9.2,3.7ZM128.4,36c-5.8,0-12.9,1-12.9,6.2,0,3.7,2.7,5.2,6.9,5.2,6.8,0,9.2-5,9.2-9.4V36Z" fill="#fff"/><path d="M161,27.3a8.15,8.15,0,0,0-6.6-3.2c-2.9,0-5.4,1.3-5.4,3.6,0,3.9,5.5,4.4,8.2,5,5.3,1.3,9.4,3.3,9.4,9.4,0,7.3-6.7,10.2-13.1,10.2-5.3,0-9.3-1.4-12.5-5.7l4.6-3.8c2,2,4.3,3.8,7.8,3.8,3.1,0,6.5-1.3,6.5-4.1,0-3.7-5.1-4.4-7.8-5-5.2-1.3-9.9-3-9.9-9.2,0-6.7,6.2-9.9,12.3-9.9,4.3,0,8.7,1.5,11,5.3Z" fill="#fff"/><path d="M170.6,19.2h6.1v4.6h.1A14,14,0,0,1,188,18.4c10,0,16.4,7.4,16.4,17s-6.5,17-16.4,17c-4.6,0-9.1-2.1-11.2-5.5h-.1V63.7h-6.1Zm6.2,16.1c0,6.5,4.1,11.2,10.6,11.2S198,41.9,198,35.3s-4.1-11.2-10.7-11.2-10.5,4.7-10.5,11.2Z" fill="#fff"/><path d="M209.3,0h6.1V51.5h-6.1Z" fill="#fff"/><path d="M235.5,18.4a17.1,17.1,0,1,1-.2,0Zm0,28.2c6.5,0,10.6-4.7,10.6-11.2S242,24.2,235.5,24.2s-10.6,4.7-10.6,11.2,4.1,11.2,10.6,11.2Z" fill="#fff"/><path d="M258.7,3.1a4.5,4.5,0,1,1-4.5,4.5A4.61,4.61,0,0,1,258.7,3.1Zm-3.1,16.1h6.1V51.5h-6.1Z" fill="#fff"/><path d="M286,24.5h-8.8V39.1c0,3.6,0,7.4,4.6,7.4a8.61,8.61,0,0,0,4.4-1v5.6a14.59,14.59,0,0,1-5.5,1.1c-9.5,0-9.6-5.8-9.6-11V24.5H264V19.2h7.1V10.1h6.1v9.1H286Z" fill="#fff"/><path d="M288,.4a4.8,4.8,0,1,1-4.8,4.8h0A4.87,4.87,0,0,1,288,.4Zm0,8.9a4.06,4.06,0,0,0,4.1-4.1,4.1,4.1,0,0,0-8.2,0h0A4.12,4.12,0,0,0,288,9.3Zm-1-1.4h-.7V2.4h2.1c1.2,0,1.7.5,1.7,1.5a1.62,1.62,0,0,1-1.4,1.6l1.7,2.4h-.8L288,5.5h-1Zm0-3h.9c.8,0,1.6,0,1.6-1,0-.7-.6-.9-1.2-.9H287Z" fill="#fff"/></svg>