<svg id="Layer_1" data-name="Layer 1" xmlns="http://www.w3.org/2000/svg" viewBox="0 0 50 50"><title>modules-icon</title><path d="M47.5,11.5h0a.35.35,0,0,0-.1-.2v-.1l-.1-.1-.1-.1-.1-.1h0L25.4.1h0a.85.85,0,0,0-.8,0h0L3,10.9H3l-.1.1-.1.1-.1.1v.1a.1.1,0,0,1-.1.1v27h0c0,.1,0,.2.1.2h0a.1.1,0,0,0,.1.1.1.1,0,0,0,.1.1l.1.1a.1.1,0,0,1,.1.1h0L24.8,49.8h0c.1,0,.2.1.3.1a.37.37,0,0,0,.3-.1h0L47,39.1a.75.75,0,0,0,.5-.7V11.5ZM5.6,37.3a.84.84,0,0,0-1.1-.4l-.3.1V13l20,9.2V47.8l-19-9.4a.87.87,0,0,0,.4-1.1ZM25,2.5a1,1,0,0,0,.7-.4l19.1,9.5L25.9,20.3V20a.8.8,0,1,0-1.6,0v.4l-19-8.8L24.4,2.1a.68.68,0,0,0,.6.4Zm.8,27.1,1.4.6a.37.37,0,0,0,.3.1,1,1,0,0,0,.8-.5.84.84,0,0,0-.4-1.1L26.4,28h-.6V22.2l20-9.2V37l-1.3-.6a.83.83,0,0,0-.7,1.5l.9.4L25.8,47.8Z" fill="#2596cd"/><path d="M17,32.9a.37.37,0,0,0,.3-.1l1.5-.7a.83.83,0,1,0-.7-1.5l-1.5.7a.84.84,0,0,0-.4,1.1.79.79,0,0,0,.8.5Z" fill="#2596cd"/><path d="M12.4,35a.37.37,0,0,0,.3-.1l1.5-.7a.83.83,0,0,0-.7-1.5l-1.5.7a.84.84,0,0,0-.4,1.1,1,1,0,0,0,.8.5Z" fill="#2596cd"/><path d="M7.9,37.1a.37.37,0,0,0,.3-.1l1.5-.7a.84.84,0,0,0,.4-1.1A.78.78,0,0,0,9,34.8l-1.5.7a.84.84,0,0,0-.4,1.1,1,1,0,0,0,.8.5Z" fill="#2596cd"/><path d="M37,32.9l-1.5-.7a.83.83,0,0,0-.7,1.5l1.5.7a.37.37,0,0,0,.3.1,1,1,0,0,0,.8-.5.84.84,0,0,0-.4-1.1Z" fill="#2596cd"/><path d="M41.5,35,40,34.3a.83.83,0,0,0-.7,1.5l1.5.7c.1.1.2.1.4.1a1,1,0,0,0,.8-.5,1,1,0,0,0-.5-1.1Z" fill="#2596cd"/><path d="M32.4,30.8l-1.5-.7a.83.83,0,1,0-.7,1.5l1.5.7a.37.37,0,0,0,.3.1,1,1,0,0,0,.8-.5.76.76,0,0,0-.4-1.1Z" fill="#2596cd"/><path d="M21.5,30.8a.37.37,0,0,0,.3-.1l1.5-.7a.83.83,0,1,0-.7-1.5l-1.5.7a.84.84,0,0,0-.4,1.1,1,1,0,0,0,.8.5Z" fill="#2596cd"/><path d="M25,7.5a.79.79,0,0,0,.8-.8V5a.8.8,0,1,0-1.6,0V6.7a.79.79,0,0,0,.8.8Z" fill="#2596cd"/><path d="M25,12.5a.79.79,0,0,0,.8-.8V10a.8.8,0,1,0-1.6,0v1.7a.79.79,0,0,0,.8.8Z" fill="#2596cd"/><path d="M25,17.5a.79.79,0,0,0,.8-.8V15a.8.8,0,1,0-1.6,0v1.7a.79.79,0,0,0,.8.8Z" fill="#2596cd"/></svg>