<svg id="Layer_1" data-name="Layer 1" xmlns="http://www.w3.org/2000/svg" viewBox="0 0 75 75"><title>products-icon</title><path d="M71.2,7.8H3.8A3.8,3.8,0,0,0,0,11.6V53.1a3.8,3.8,0,0,0,3.8,3.8H25.9v7.9H20.6a1.2,1.2,0,1,0,0,2.4H54.3a1.2,1.2,0,1,0,0-2.4H49V56.9H71.1a3.8,3.8,0,0,0,3.8-3.8V11.6A3.65,3.65,0,0,0,71.2,7.8Zm-24.5,57H28.3V56.9H46.6v7.9ZM72.6,53.1a1.37,1.37,0,0,1-1.4,1.4H3.8a1.37,1.37,0,0,1-1.4-1.4V11.6a1.37,1.37,0,0,1,1.4-1.4H71.2a1.37,1.37,0,0,1,1.4,1.4Z" fill="#2596cd"/><path d="M23,17.9a14.4,14.4,0,0,0,0,28.8,15,15,0,0,0,8.6-2.8h.1l.1-.1A14.47,14.47,0,0,0,23,17.9Zm-1.4,2.8V31H11.4A11.69,11.69,0,0,1,21.6,20.7ZM23,44A11.68,11.68,0,0,1,11.4,33.7H22.3l6.6,8.7A12.13,12.13,0,0,1,23,44Zm8-3.2-6.7-8.9V20.7A11.68,11.68,0,0,1,34.6,32.3,11.11,11.11,0,0,1,31,40.8Z" fill="#2596cd"/><path d="M41.9,22.1H59.3a1.4,1.4,0,1,0,0-2.8H41.9a1.4,1.4,0,1,0,0,2.8Z" fill="#2596cd"/><path d="M65.1,31h-16a1.4,1.4,0,0,0,0,2.8h16a1.37,1.37,0,0,0,1.4-1.4A1.5,1.5,0,0,0,65.1,31Z" fill="#2596cd"/><path d="M43.3,31H41.8a1.4,1.4,0,1,0,0,2.8h1.5a1.4,1.4,0,0,0,0-2.8Z" fill="#2596cd"/><path d="M65.1,36.8h-16a1.4,1.4,0,0,0,0,2.8h16a1.37,1.37,0,0,0,1.4-1.4A1.5,1.5,0,0,0,65.1,36.8Z" fill="#2596cd"/><path d="M43.3,36.8H41.8a1.4,1.4,0,1,0,0,2.8h1.5a1.4,1.4,0,0,0,0-2.8Z" fill="#2596cd"/><path d="M65.1,42.6h-16a1.4,1.4,0,0,0,0,2.8h16A1.37,1.37,0,0,0,66.5,44,1.5,1.5,0,0,0,65.1,42.6Z" fill="#2596cd"/><path d="M43.3,42.6H41.8a1.4,1.4,0,0,0,0,2.8h1.5a1.4,1.4,0,0,0,0-2.8Z" fill="#2596cd"/><path d="M65.1,25.2H41.9a1.4,1.4,0,1,0,0,2.8H65.1a1.37,1.37,0,0,0,1.4-1.4A1.5,1.5,0,0,0,65.1,25.2Z" fill="#2596cd"/></svg>