<svg id="Layer_1" data-name="Layer 1" xmlns="http://www.w3.org/2000/svg" viewBox="0 0 50 50"><title>pull-requests-icon</title><path d="M12.4,6.4A6.23,6.23,0,0,0,6.2.2a6.18,6.18,0,0,0-.9,12.3V37.7A6.15,6.15,0,0,0,0,43.8,6.23,6.23,0,0,0,6.2,50a6.23,6.23,0,0,0,6.2-6.2,6.15,6.15,0,0,0-5.3-6.1V12.5A6.23,6.23,0,0,0,12.4,6.4ZM1.7,6.4a4.5,4.5,0,1,1,4.5,4.5A4.61,4.61,0,0,1,1.7,6.4Zm9,37.3a4.5,4.5,0,1,1-4.5-4.5A4.61,4.61,0,0,1,10.7,43.7Z" fill="#2596cd"/><path d="M44.7,37.6V17c0-10.8-11-11.5-11.2-11.5H25V.1L20.8,3.3,16.6,6.5l4.2,3.2L25,12.9V7.2h8.5c.4,0,9.5.5,9.5,9.7V37.6a6.15,6.15,0,0,0-5.3,6.1,6.2,6.2,0,0,0,12.4,0A6.41,6.41,0,0,0,44.7,37.6ZM23.2,6.4V9.2L21.8,8.1,19.5,6.3l2.3-1.8,1.4-1.1ZM43.8,48.2a4.5,4.5,0,1,1,4.5-4.5A4.48,4.48,0,0,1,43.8,48.2Z" fill="#2596cd"/></svg>