<svg id="Layer_1" data-name="Layer 1" xmlns="http://www.w3.org/2000/svg" viewBox="0 0 16 16"><title>slack-icon</title><path d="M14.3,7.7l-1.6.5L11.6,5l1.6-.5a1.26,1.26,0,1,0-.8-2.4l-1.6.5L10.2.9a1.26,1.26,0,0,0-2.4.8l.6,1.7L5,4.5,4.4,2.8A1.27,1.27,0,0,0,2.8,2,1.19,1.19,0,0,0,2,3.6l.6,1.7L.9,5.9A1.27,1.27,0,0,0,.1,7.5a1.59,1.59,0,0,0,1.2.9.6.6,0,0,0,.4-.1l1.6-.5L4.4,11l-1.6.5A1.29,1.29,0,0,0,3.2,14a.6.6,0,0,0,.4-.1l1.6-.5.6,1.7A1.4,1.4,0,0,0,7,16a.6.6,0,0,0,.4-.1,1.27,1.27,0,0,0,.8-1.6l-.6-1.7,3.3-1.1.6,1.7a1.4,1.4,0,0,0,1.2.9.6.6,0,0,0,.4-.1,1.27,1.27,0,0,0,.8-1.6l-.6-1.7,1.6-.5a1.27,1.27,0,0,0,.8-1.6C15.7,7.8,15,7.5,14.3,7.7ZM6.9,10.2,5.8,7,9.1,5.9l1.1,3.2Z" fill="#97a3ab"/></svg>