<svg id="Layer_1" data-name="Layer 1" xmlns="http://www.w3.org/2000/svg" viewBox="0 0 16 16"><title>twitter-icon</title><path d="M5,14.5a9.26,9.26,0,0,0,9.3-9.3V4.8A5.81,5.81,0,0,0,16,3a5.92,5.92,0,0,1-1.9.5,3.1,3.1,0,0,0,1.4-1.8,4.85,4.85,0,0,1-2.1.8,3.2,3.2,0,0,0-4.6-.1,3.26,3.26,0,0,0-.9,3.1A9.38,9.38,0,0,1,1.1,2.1a3.32,3.32,0,0,0,1,4.4A4.19,4.19,0,0,1,.6,6.1h0A3.23,3.23,0,0,0,3.2,9.3a3.81,3.81,0,0,1-1.5.1,3.34,3.34,0,0,0,3.1,2.3A6.77,6.77,0,0,1,.7,13.1H-.1A10.3,10.3,0,0,0,5,14.5" fill="#97a3ab"/></svg>