<svg id="Layer_1" data-name="Layer 1" xmlns="http://www.w3.org/2000/svg" viewBox="0 0 50 50"><title>users-icon</title><path d="M45.8,37.8l-8-4a2.27,2.27,0,0,1-1.2-2V29a5.55,5.55,0,0,0,.6-.8,21.92,21.92,0,0,0,2.5-4.8,3.19,3.19,0,0,0,1.9-3V17.1a3.49,3.49,0,0,0-.8-2.2V10.5a7.8,7.8,0,0,0-1.7-5.4c-1.7-2-4.5-2.9-8.3-2.9s-6.5,1-8.3,2.9a7.1,7.1,0,0,0-1.7,4,11.17,11.17,0,0,0-5-1.1c-8.7,0-9.2,7.4-9.2,7.5v3.8a3.15,3.15,0,0,0-.8,1.9v2.9a3,3,0,0,0,1.1,2.3,12.7,12.7,0,0,0,3,5.2v2.3a1.78,1.78,0,0,1-1,1.6L3.4,39A6.45,6.45,0,0,0,0,44.8V48H50V44.6a7.55,7.55,0,0,0-4.2-6.8ZM20.3,35.2l-4.7,2.6a7.45,7.45,0,0,0-3.9,6.6h0v1.9H1.7V44.8a5.09,5.09,0,0,1,2.6-4.4l5.5-3.5a3.49,3.49,0,0,0,1.8-3v-3l-.3-.2a11.51,11.51,0,0,1-2.9-5l-.1-.3L8,25.2a1.25,1.25,0,0,1-.6-1.1V21.2a1.37,1.37,0,0,1,.6-1l.3-.2V15.5c0-.2.4-5.9,7.5-5.9a8.68,8.68,0,0,1,5,1.4v3.9a3.49,3.49,0,0,0-.8,2.2v3.3a1.48,1.48,0,0,0,.1.7c0,.1.1.2.1.3s.1.3.1.4h0a3.13,3.13,0,0,0,.9,1.1h0a1.42,1.42,0,0,0,.2.6l.1.2v.1c0,.1.1.2.1.3a1.69,1.69,0,0,0,.2.5c0,.1.1.1.1.2s.1.3.2.5v.2a.1.1,0,0,0,.1.1,1.69,1.69,0,0,1,.2.5v.1c.1.1.1.2.2.3s.2.3.3.5a.35.35,0,0,0,.1.2l.3.6a.1.1,0,0,0,.1.1,9.22,9.22,0,0,1,.5.8l.1.1a.1.1,0,0,0,.1.1v2.8A2.14,2.14,0,0,1,23,33.6l-2.2,1.2M48.3,46.2h-35V44.3a5.93,5.93,0,0,1,3-5.1l7.4-4.1a4,4,0,0,0,2-3.4V28.4l-.2-.2h0a.35.35,0,0,1-.1-.2h0c0-.1-.1-.1-.2-.2h0c-.1-.2-.3-.4-.5-.7h0c-.1-.1-.2-.3-.3-.4h0a10.91,10.91,0,0,1-.6-1.1h0a4.88,4.88,0,0,1-.3-.7v-.1c0-.1-.1-.2-.1-.3v-.1c0-.1-.1-.2-.1-.3a1.85,1.85,0,0,1-.2-.7v-.2a2.35,2.35,0,0,1-.2-.8l-.2-.4-.3-.2a1.6,1.6,0,0,1-.8-1.4V17.1a1.43,1.43,0,0,1,.6-1.2l.3-.2V10.2h0a5.88,5.88,0,0,1,1.4-4c1.4-1.6,3.7-2.4,7-2.4s5.6.8,7,2.4a5.32,5.32,0,0,1,1.3,4.2v5.3l.3.3a1.56,1.56,0,0,1,.6,1.2v3.3a1.71,1.71,0,0,1-1.2,1.6l-.4.1-.1.4A18,18,0,0,1,36,27.4a7.05,7.05,0,0,1-.7.9l-.3.1v3.4a3.92,3.92,0,0,0,2.1,3.5l8,4a5.77,5.77,0,0,1,3.2,5.2Z" fill="#2596cd"/></svg>